<?xml version="1.0" encoding="UTF-8"?>
<svg width="1024px" height="1024px" viewBox="0 0 1024 1024" version="1.1" xmlns="http://www.w3.org/2000/svg" xmlns:xlink="http://www.w3.org/1999/xlink">
    <title>Logo-2-2svg</title>
    <defs>
        <linearGradient x1="4.93654596%" y1="0%" x2="95.063454%" y2="100%" id="linearGradient-1">
            <stop stop-color="#5398FF" offset="0%"></stop>
            <stop stop-color="#1956FF" offset="100%"></stop>
        </linearGradient>
    </defs>
    <g id="Logo-2-2" stroke="none" stroke-width="1" fill="none" fill-rule="evenodd">
        <path d="M565.489231,240 C699.596778,240 808.312424,348.715647 808.312424,482.823193 C808.312424,615.589664 701.760219,723.469534 569.504757,725.613855 L565.489231,725.646386 L489.100118,725.646386 C487.374194,725.646386 485.842901,726.753403 485.30179,728.392309 L457.283348,813.254077 C456.742237,814.892983 455.210944,816 453.485021,816 L285.002004,816 C283.897435,816.000001 283.002004,815.10457 283.002004,814 C283.002004,813.837356 283.021843,813.67532 283.061083,813.51748 C283.590327,811.388611 284.045791,809.713 284.427475,808.490649 L284.846314,807.186578 L347.681088,616.858146 C358.729044,583.393553 389.715058,560.638422 424.842645,560.01279 L426.32933,559.999557 L524.883882,559.999557 C525.436166,559.999557 525.883882,560.447272 525.883882,560.999557 C525.883882,561.089361 525.871785,561.178756 525.847917,561.265331 L515.922244,597.268489 L515.922244,597.268489 C515.382647,599.224782 515.657687,601.306048 516.665955,603.045697 L517.029089,603.612287 C519.307078,606.839803 523.660917,607.732434 527.003439,605.757743 L527.522351,605.422044 L691.052979,490.001664 C691.667573,489.567882 692.2488,489.088657 692.791776,488.568013 C698.594663,483.003804 698.975129,473.91064 693.794601,467.888137 L693.238841,467.276343 L592.549485,362.26791 C591.610588,361.288739 590.424589,360.581417 589.116847,360.220707 C585.290381,359.165267 581.338774,361.261545 580.025771,364.940807 L579.856447,365.477015 L569.164047,404.246122 C568.924762,405.113737 568.13543,405.714654 567.235424,405.714381 L344.309129,405.646829 L344.309129,405.646829 C298.56702,405.646829 261.485714,368.565524 261.485714,322.823415 C261.485714,277.538727 297.829102,240.742492 342.939492,240.011096 L344.309129,240 L565.489231,240 Z" id="路径备份-4" fill="url(#linearGradient-1)" fill-rule="nonzero"></path>
    </g>
</svg>